<svg width="81" height="81" viewBox="0 0 81 81" fill="none" xmlns="http://www.w3.org/2000/svg">
<circle cx="40.5" cy="40.5" r="40.5" fill="#8ED1FD"/>
<path d="M32.75 51.8733H17.7969C17.4363 51.8733 17.0906 51.7301 16.8357 51.4751C16.5807 51.2202 16.4375 50.8744 16.4375 50.5139V35.5607C16.4375 31.2344 18.1561 27.0853 21.2153 24.0261C24.2745 20.9669 28.4236 19.2483 32.75 19.2483H32.75C37.0763 19.2483 41.2255 20.9669 44.2847 24.0261C47.3439 27.0853 49.0625 31.2344 49.0625 35.5608V35.5608C49.0625 39.8872 47.3439 44.0363 44.2847 47.0955C41.2255 50.1547 37.0764 51.8733 32.75 51.8733V51.8733Z" stroke="white" stroke-width="2" stroke-linecap="round" stroke-linejoin="round"/>
<path d="M31.866 51.8739C32.9916 55.0543 35.0754 57.8077 37.8304 59.7551C40.5854 61.7025 43.8762 62.7482 47.25 62.7482H62.2031C62.5637 62.7482 62.9094 62.605 63.1644 62.35C63.4193 62.0951 63.5625 61.7493 63.5625 61.3888V46.4356C63.5625 42.2636 61.9639 38.2501 59.0956 35.2204C56.2273 32.1908 52.3072 30.3752 48.1413 30.1471" stroke="white" stroke-width="2" stroke-linecap="round" stroke-linejoin="round"/>
</svg>
