<svg width="30" height="30" viewBox="0 0 30 30" fill="none" xmlns="http://www.w3.org/2000/svg">
<g clip-path="url(#clip0)">
<path d="M17.7485 15.0253L29.4299 3.34355C30.1901 2.5837 30.1901 1.35513 29.4299 0.595278C28.67 -0.164572 27.4415 -0.164572 26.6816 0.595278L14.9998 12.277L3.31843 0.595278C2.55822 -0.164572 1.33001 -0.164572 0.570155 0.595278C-0.190052 1.35513 -0.190052 2.5837 0.570155 3.34355L12.2516 15.0253L0.570155 26.7071C-0.190052 27.4669 -0.190052 28.6955 0.570155 29.4554C0.948834 29.8344 1.44674 30.0248 1.94429 30.0248C2.44184 30.0248 2.93939 29.8344 3.31843 29.4554L14.9998 17.7736L26.6816 29.4554C27.0606 29.8344 27.5582 30.0248 28.0557 30.0248C28.5533 30.0248 29.0508 29.8344 29.4299 29.4554C30.1901 28.6955 30.1901 27.4669 29.4299 26.7071L17.7485 15.0253Z" fill="#201F55"/>
</g>
<defs>
<clipPath id="clip0">
<rect width="30" height="30" fill="white"/>
</clipPath>
</defs>
</svg>
