<svg width="16" height="17" viewBox="0 0 16 17" fill="none" xmlns="http://www.w3.org/2000/svg">
<path fill-rule="evenodd" clip-rule="evenodd" d="M8 1.5C4.2 1.5 1 4.7 1 8.5C1 12.3 4.2 15.5 8 15.5C11.8 15.5 15 12.4 15 8.5C15 4.6 11.9 1.5 8 1.5ZM7.5 4.5H8.5V9.5H7.5V4.5ZM8 12.7C7.6 12.7 7.2 12.3 7.2 11.9C7.2 11.5 7.5 11.1 8 11.1C8.4 11.1 8.8 11.5 8.8 11.9C8.8 12.3 8.4 12.7 8 12.7Z" fill="#FF5B5B"/>
<path opacity="0.01" fill-rule="evenodd" clip-rule="evenodd" d="M7.50001 4.5H8.50001V9.5H7.50001V4.5ZM8.00001 12.7C7.60001 12.7 7.20001 12.3 7.20001 11.9C7.20001 11.5 7.50001 11.1 8.00001 11.1C8.40001 11.1 8.80001 11.5 8.80001 11.9C8.80001 12.3 8.40001 12.7 8.00001 12.7Z" fill="#FF5B5B"/>
</svg>
