<svg width="370" height="310" viewBox="0 0 370 310" fill="none" xmlns="http://www.w3.org/2000/svg">
<g opacity="0.5">
<g clip-path="url(#clip0)">
<path d="M220.307 179.212L213.195 166.893C213.043 166.63 212.763 166.468 212.459 166.468H157.523C157.22 166.468 156.939 166.63 156.787 166.893L149.726 179.124C147.694 182.644 150.177 186.858 154.09 186.858H215.788C219.848 186.858 222.268 182.607 220.307 179.212Z" fill="#504EA1"/>
<path d="M209.271 160.096L201.423 146.503C201.271 146.24 200.991 146.078 200.687 146.078H169.295C168.992 146.078 168.711 146.24 168.56 146.503L160.712 160.096C160.385 160.663 160.793 161.371 161.447 161.371H208.535C209.189 161.371 209.598 160.663 209.271 160.096Z" fill="#504EA1"/>
<path d="M197.499 139.707L189.458 125.779C187.428 122.263 182.537 122.293 180.577 125.689L172.484 139.707C172.157 140.273 172.565 140.981 173.219 140.981H196.763C197.417 140.981 197.826 140.273 197.499 139.707Z" fill="#FA6384"/>
</g>
</g>
<defs>
<clipPath id="clip0">
<rect width="72" height="72" fill="white" transform="translate(149 119)"/>
</clipPath>
</defs>
</svg>
