<svg width="81" height="81" viewBox="0 0 81 81" fill="none" xmlns="http://www.w3.org/2000/svg">
<circle cx="40.5" cy="40.5" r="40.5" fill="#FF5B5B"/>
<path d="M41 17.4375V22.875" stroke="white" stroke-width="2" stroke-linecap="round" stroke-linejoin="round"/>
<path d="M41 59.125V64.5625" stroke="white" stroke-width="2" stroke-linecap="round" stroke-linejoin="round"/>
<path d="M53.6875 31.9375C53.6875 30.7474 53.4531 29.5689 52.9977 28.4694C52.5422 27.3699 51.8747 26.3709 51.0332 25.5293C50.1916 24.6878 49.1926 24.0203 48.0931 23.5648C46.9936 23.1094 45.8151 22.875 44.625 22.875H36.4688C34.0652 22.875 31.7601 23.8298 30.0606 25.5293C28.361 27.2289 27.4063 29.534 27.4062 31.9375C27.4063 34.341 28.361 36.6461 30.0606 38.3457C31.7601 40.0452 34.0652 41 36.4688 41H46.4375C48.841 41 51.1461 41.9548 52.8457 43.6543C54.5452 45.3539 55.5 47.659 55.5 50.0625C55.5 52.466 54.5452 54.7711 52.8457 56.4707C51.1461 58.1702 48.841 59.125 46.4375 59.125H35.5625C33.159 59.125 30.8539 58.1702 29.1543 56.4707C27.4548 54.7711 26.5 52.466 26.5 50.0625" stroke="white" stroke-width="2" stroke-linecap="round" stroke-linejoin="round"/>
</svg>
