<svg width="81" height="81" viewBox="0 0 81 81" fill="none" xmlns="http://www.w3.org/2000/svg">
<circle cx="40.5" cy="40.5" r="40.5" fill="#6E74C8"/>
<path d="M17.003 50.7196H15.3744V33.2029L10 35.1656V33.6702L16.7316 31.2136H17.003V50.7196Z" fill="white"/>
<path d="M36.777 42.6155C36.777 45.3569 36.2658 47.4397 35.2434 48.8638C34.221 50.279 32.7146 50.9867 30.724 50.9867C28.7697 50.9867 27.2723 50.2924 26.2318 48.9039C25.1913 47.5065 24.6575 45.4771 24.6303 42.8158V39.3311C24.6303 36.5986 25.1461 34.5292 26.1775 33.1228C27.209 31.7165 28.7154 31.0134 30.6969 31.0134C32.6512 31.0134 34.1441 31.6943 35.1756 33.0561C36.207 34.409 36.7408 36.4072 36.777 39.0507V42.6155ZM35.1484 39.1308C35.1484 36.9057 34.7775 35.2234 34.0355 34.0841C33.3027 32.9448 32.1898 32.3752 30.6969 32.3752C29.2311 32.3752 28.1273 32.9315 27.3854 34.0441C26.6435 35.1567 26.2635 36.7988 26.2454 38.9706V42.7891C26.2454 45.0053 26.6254 46.7009 27.3854 47.8758C28.1545 49.0507 29.2673 49.6382 30.724 49.6382C32.1717 49.6382 33.2665 49.0641 34.0084 47.9159C34.7594 46.7677 35.1394 45.0854 35.1484 42.8692V39.1308Z" fill="white"/>
<path d="M52.1945 42.6155C52.1945 45.3569 51.6833 47.4397 50.6609 48.8638C49.6385 50.279 48.1321 50.9867 46.1415 50.9867C44.1872 50.9867 42.6898 50.2924 41.6493 48.9039C40.6088 47.5065 40.075 45.4771 40.0478 42.8158V39.3311C40.0478 36.5986 40.5635 34.5292 41.595 33.1228C42.6265 31.7165 44.1329 31.0134 46.1144 31.0134C48.0687 31.0134 49.5616 31.6943 50.5931 33.0561C51.6245 34.409 52.1583 36.4072 52.1945 39.0507V42.6155ZM50.5659 39.1308C50.5659 36.9057 50.195 35.2234 49.453 34.0841C48.7202 32.9448 47.6073 32.3752 46.1144 32.3752C44.6486 32.3752 43.5448 32.9315 42.8029 34.0441C42.061 35.1567 41.681 36.7988 41.6629 38.9706V42.7891C41.6629 45.0053 42.0429 46.7009 42.8029 47.8758C43.5719 49.0507 44.6848 49.6382 46.1415 49.6382C47.5892 49.6382 48.684 49.0641 49.4259 47.9159C50.1769 46.7677 50.5569 45.0854 50.5659 42.8692V39.1308Z" fill="white"/>
<path d="M55.316 35.0187C55.316 33.8616 55.6779 32.9048 56.4018 32.1482C57.1346 31.3827 58.062 31 59.184 31C60.3059 31 61.2288 31.3827 61.9526 32.1482C62.6855 32.9048 63.0519 33.8883 63.0519 35.0988V36.0467C63.0519 37.186 62.69 38.1384 61.9662 38.9039C61.2514 39.6604 60.333 40.0387 59.2111 40.0387C58.0982 40.0387 57.1708 39.6649 56.4289 38.9172C55.687 38.1696 55.316 37.1816 55.316 35.9533V35.0187ZM56.6325 36.0467C56.6325 36.8745 56.8632 37.5554 57.3246 38.0895C57.7951 38.6235 58.424 38.8905 59.2111 38.8905C59.9802 38.8905 60.5909 38.6235 61.0433 38.0895C61.5047 37.5465 61.7355 36.8478 61.7355 35.9933V35.0187C61.7355 34.1909 61.5002 33.51 61.0297 32.976C60.5592 32.433 59.944 32.1615 59.184 32.1615C58.433 32.1615 57.8177 32.4286 57.3382 32.9626C56.8677 33.4967 56.6325 34.2087 56.6325 35.0988V36.0467ZM65.2641 45.9533C65.2641 44.7962 65.626 43.8393 66.3498 43.0828C67.0827 42.3262 68.0056 41.9479 69.1185 41.9479C70.2314 41.9479 71.1542 42.3262 71.8871 43.0828C72.629 43.8304 73 44.8184 73 46.0467V46.9947C73 48.1518 72.6336 49.1086 71.9007 49.8652C71.1769 50.6217 70.2585 51 69.1456 51C68.0327 51 67.1053 50.6262 66.3634 49.8785C65.6305 49.1219 65.2641 48.1384 65.2641 46.9279V45.9533ZM66.567 46.9947C66.567 47.8313 66.7977 48.5167 67.2592 49.0507C67.7296 49.5848 68.3585 49.8518 69.1456 49.8518C69.9237 49.8518 70.539 49.5848 70.9914 49.0507C71.4528 48.5078 71.6835 47.8002 71.6835 46.9279V45.9533C71.6835 45.0988 71.4483 44.4134 70.9778 43.8972C70.5164 43.3721 69.8966 43.1095 69.1185 43.1095C68.3585 43.1095 67.7432 43.3721 67.2727 43.8972C66.8022 44.4223 66.567 45.1255 66.567 46.0067V46.9947ZM59.7268 49.1041L58.709 48.4633L68.3585 33.2697L69.3763 33.9105L59.7268 49.1041Z" fill="white"/>
</svg>
