<svg width="81" height="81" viewBox="0 0 81 81" fill="none" xmlns="http://www.w3.org/2000/svg">
<circle cx="40.5" cy="40.5" r="40.5" fill="#6E74C8"/>
<path d="M33.3102 53.8165C30.7469 61.5063 20.4939 61.5063 20.4939 61.5063C20.4939 61.5063 20.4939 51.2532 28.1837 48.6899" stroke="white" stroke-width="2" stroke-linecap="round" stroke-linejoin="round"/>
<path d="M56.3796 35.8732L41 51.2528L30.7469 40.9997L46.1265 25.6201C51.9501 19.7965 57.7737 19.8534 60.2573 20.2239C60.6397 20.2809 60.9937 20.4592 61.2671 20.7326C61.5405 21.006 61.7188 21.36 61.7758 21.7424C62.1464 24.226 62.2032 30.0496 56.3796 35.8732Z" stroke="white" stroke-width="2" stroke-linecap="round" stroke-linejoin="round"/>
<path d="M53.8163 38.437V53.0658C53.8163 53.3038 53.7694 53.5395 53.6783 53.7594C53.5873 53.9793 53.4537 54.1791 53.2854 54.3475L45.958 61.6749C45.726 61.9069 45.4355 62.0715 45.1172 62.1513C44.799 62.2311 44.4651 62.223 44.1511 62.128C43.8372 62.0329 43.5549 61.8544 43.3344 61.6115C43.1139 61.3686 42.9634 61.0704 42.8991 60.7487L41 51.2533" stroke="white" stroke-width="2" stroke-linecap="round" stroke-linejoin="round"/>
<path d="M43.5632 28.1836H28.9344C28.6964 28.1836 28.4607 28.2305 28.2408 28.3216C28.0209 28.4126 27.8211 28.5462 27.6528 28.7145L20.3254 36.0419C20.0934 36.2739 19.9287 36.5645 19.8489 36.8827C19.7691 37.2009 19.7772 37.5348 19.8723 37.8488C19.9673 38.1627 20.1458 38.445 20.3887 38.6655C20.6316 38.886 20.9298 39.0365 21.2515 39.1008L30.7469 40.9999" stroke="white" stroke-width="2" stroke-linecap="round" stroke-linejoin="round"/>
</svg>
