<svg width="81" height="81" viewBox="0 0 81 81" fill="none" xmlns="http://www.w3.org/2000/svg">
<circle cx="40.5" cy="40.5" r="40.5" fill="#6E74C8"/>
<path d="M35.7446 42.9386C35.7446 46.2283 35.1241 48.7276 33.883 50.4366C32.642 52.1348 30.8133 52.984 28.397 52.984C26.0247 52.984 24.207 52.1509 22.944 50.4846C21.6809 48.8077 21.0329 46.3725 21 43.1789V38.9973C21 35.7183 21.626 33.235 22.8781 31.5474C24.1301 29.8598 25.9588 29.016 28.3641 29.016C30.7364 29.016 32.5486 29.8331 33.8007 31.4673C35.0527 33.0908 35.7007 35.4887 35.7446 38.6609V42.9386ZM33.7677 38.757C33.7677 36.0868 33.3174 34.0681 32.4168 32.7009C31.5272 31.3338 30.1763 30.6502 28.3641 30.6502C26.5848 30.6502 25.2449 31.3178 24.3443 32.6529C23.4437 33.988 22.9824 35.9586 22.9605 38.5648V43.1469C22.9605 45.8064 23.4217 47.8411 24.3443 49.251C25.2779 50.6609 26.6288 51.3658 28.397 51.3658C30.1543 51.3658 31.4833 50.6769 32.3839 49.2991C33.2954 47.9212 33.7567 45.9025 33.7677 43.243V38.757Z" fill="white"/>
<path d="M39.5338 33.8224C39.5338 32.4339 39.9731 31.2857 40.8517 30.3778C41.7414 29.4593 42.8671 29 44.229 29C45.5909 29 46.7111 29.4593 47.5898 30.3778C48.4794 31.2857 48.9242 32.466 48.9242 33.9186V35.0561C48.9242 36.4232 48.4849 37.5661 47.6063 38.4846C46.7386 39.3925 45.6238 39.8465 44.2619 39.8465C42.911 39.8465 41.7853 39.3979 40.8847 38.5007C39.9841 37.6035 39.5338 36.4179 39.5338 34.9439V33.8224ZM41.1318 35.0561C41.1318 36.0494 41.4119 36.8665 41.972 37.5073C42.5431 38.1482 43.3064 38.4686 44.2619 38.4686C45.1955 38.4686 45.9368 38.1482 46.486 37.5073C47.0461 36.8558 47.3262 36.0174 47.3262 34.992V33.8224C47.3262 32.8291 47.0406 32.012 46.4695 31.3712C45.8984 30.7196 45.1516 30.3939 44.229 30.3939C43.3174 30.3939 42.5706 30.7143 41.9885 31.3551C41.4174 31.996 41.1318 32.8505 41.1318 33.9186V35.0561ZM51.6096 46.9439C51.6096 45.5554 52.0489 44.4072 52.9275 43.4993C53.8171 42.5915 54.9374 42.1375 56.2883 42.1375C57.6392 42.1375 58.7595 42.5915 59.6491 43.4993C60.5497 44.3965 61 45.5821 61 47.0561V48.1936C61 49.5821 60.5552 50.7303 59.6656 51.6382C58.7869 52.5461 57.6722 53 56.3213 53C54.9703 53 53.8446 52.5514 52.944 51.6542C52.0544 50.7463 51.6096 49.5661 51.6096 48.1135V46.9439ZM53.1911 48.1936C53.1911 49.1976 53.4712 50.02 54.0313 50.6609C54.6024 51.3017 55.3657 51.6222 56.3213 51.6222C57.2658 51.6222 58.0126 51.3017 58.5618 50.6609C59.1219 50.0093 59.402 49.1602 59.402 48.1135V46.9439C59.402 45.9186 59.1164 45.0961 58.5453 44.4766C57.9852 43.8465 57.2328 43.5314 56.2883 43.5314C55.3657 43.5314 54.6189 43.8465 54.0478 44.4766C53.4767 45.1068 53.1911 45.9506 53.1911 47.008V48.1936ZM44.888 50.725L43.6524 49.9559L55.3657 31.7236L56.6013 32.4927L44.888 50.725Z" fill="white"/>
</svg>
