<svg width="81" height="81" viewBox="0 0 81 81" fill="none" xmlns="http://www.w3.org/2000/svg">
<circle cx="40.5" cy="40.5" r="40.5" fill="#6E74C8"/>
<path d="M31.9517 40.2794C33.8318 44.1232 36.9474 47.2247 40.7997 49.0873C41.0815 49.2208 41.3933 49.2787 41.7043 49.2552C42.0153 49.2316 42.3148 49.1275 42.5734 48.9531L48.2455 45.1708C48.4964 45.0035 48.785 44.9014 49.0853 44.8738C49.3855 44.8463 49.6879 44.894 49.965 45.0128L60.5766 49.5606C60.937 49.7137 61.238 49.9798 61.4341 50.3189C61.6301 50.6579 61.7107 51.0515 61.6637 51.4403C61.3283 54.0648 60.0477 56.4771 58.0618 58.2254C56.0759 59.9738 53.5209 60.9383 50.875 60.9385C42.703 60.9385 34.8657 57.6922 29.0873 51.9137C23.3088 46.1352 20.0625 38.298 20.0625 30.126C20.0626 27.4801 21.0272 24.925 22.7755 22.9391C24.5239 20.9532 26.9362 19.6727 29.5607 19.3373C29.9495 19.2903 30.3431 19.3708 30.6821 19.5669C31.0211 19.763 31.2873 20.0639 31.4404 20.4244L35.9922 31.0452C36.1099 31.3199 36.1579 31.6195 36.1318 31.9172C36.1057 32.2149 36.0064 32.5016 35.8428 32.7517L32.0736 38.5109C31.902 38.7699 31.8006 39.0691 31.7793 39.3791C31.7579 39.689 31.8173 39.9993 31.9517 40.2794V40.2794Z" stroke="white" stroke-width="2" stroke-linecap="round" stroke-linejoin="round"/>
</svg>
