<svg width="48" height="48" viewBox="0 0 48 48" fill="none" xmlns="http://www.w3.org/2000/svg">
<g clip-path="url(#clip0_12_32)">
<mask id="mask0_12_32" style="mask-type:luminance" maskUnits="userSpaceOnUse" x="0" y="0" width="48" height="48">
<path d="M48 0H0V48H48V0Z" fill="white"/>
</mask>
<g mask="url(#mask0_12_32)">
<path d="M47.5383 40.1412L42.7968 31.9287C42.6957 31.7535 42.5086 31.6455 42.3063 31.6455H5.68214C5.47983 31.6455 5.29279 31.7535 5.19164 31.9287L0.483888 40.0829C-0.870706 42.4291 0.78445 45.2387 3.39314 45.2387H44.5253C47.2323 45.2387 48.8453 42.4049 47.5383 40.1412Z" fill="white"/>
<path d="M40.1808 27.3976L34.9488 18.3354C34.8476 18.1602 34.6606 18.0522 34.4583 18.0522H13.5303C13.328 18.0522 13.141 18.1601 13.0398 18.3354L7.8078 27.3976C7.58983 27.7751 7.86226 28.2471 8.2983 28.2471H39.6903C40.1263 28.2471 40.3988 27.7752 40.1808 27.3976Z" fill="white"/>
<path d="M32.3327 13.8044L26.9721 4.5196C25.6185 2.17519 22.3581 2.19535 21.0512 4.45913L15.6557 13.8044C15.4377 14.1819 15.7102 14.654 16.1462 14.654H31.8422C32.2782 14.6541 32.5507 14.182 32.3327 13.8044Z" fill="#FA6384"/>
</g>
</g>
<defs>
<clipPath id="clip0_12_32">
<rect width="48" height="48" fill="white"/>
</clipPath>
</defs>
</svg>
