<svg width="16" height="16" viewBox="0 0 16 16" fill="none" xmlns="http://www.w3.org/2000/svg">
<path fill-rule="evenodd" clip-rule="evenodd" d="M15.5 7.8C14.3 4.7 11.3 2.6 8 2.5C4.7 2.6 1.7 4.7 0.5 7.8V8.1C1.7 11.2 4.6 13.3 8 13.4C11.3 13.3 14.3 11.2 15.5 8.1V7.8ZM5 8C5 6.3 6.3 5 8 5C9.7 5 11 6.3 11 8C11 9.7 9.7 11 8 11C6.3 11 5 9.7 5 8ZM6 8C6 9.1 6.9 10 8 10C9.1 10 10 9.1 10 8C10 6.9 9.1 6 8 6C6.9 6 6 6.9 6 8ZM1.5 8C2.6 10.5 5.3 12.5 8 12.5C10.6 12.5 13.4 10.5 14.5 8C13.4 5.5 10.7 3.5 8 3.5C5.3 3.5 2.5 5.5 1.5 8Z" fill="#201F55"/>
</svg>
