<svg width="81" height="81" viewBox="0 0 81 81" fill="none" xmlns="http://www.w3.org/2000/svg">
<circle cx="40.5" cy="40.5" r="40.5" fill="#6E74C8"/>
<path d="M27.1465 41.9033C27.1465 45.0771 26.6045 47.4355 25.5205 48.9785C24.4365 50.5215 22.7422 51.293 20.4375 51.293C18.1621 51.293 16.4775 50.541 15.3838 49.0371C14.29 47.5234 13.7236 45.2676 13.6846 42.2695V38.6514C13.6846 35.5166 14.2266 33.1875 15.3105 31.6641C16.3945 30.1406 18.0938 29.3789 20.4082 29.3789C22.7031 29.3789 24.3926 30.1162 25.4766 31.5908C26.5605 33.0557 27.1172 35.3213 27.1465 38.3877V41.9033ZM24.4365 38.1973C24.4365 35.9023 24.1143 34.2324 23.4697 33.1875C22.8252 32.1328 21.8047 31.6055 20.4082 31.6055C19.0215 31.6055 18.0107 32.1279 17.376 33.1729C16.7412 34.2178 16.4141 35.8242 16.3945 37.9922V42.3281C16.3945 44.6328 16.7266 46.3369 17.3906 47.4404C18.0645 48.5342 19.0801 49.0811 20.4375 49.0811C21.7754 49.0811 22.7666 48.5635 23.4111 47.5283C24.0654 46.4932 24.4072 44.8623 24.4365 42.6357V38.1973Z" fill="white"/>
<path d="M30.9551 49.5791C30.9551 49.1104 31.0918 48.7197 31.3652 48.4072C31.6484 48.0947 32.0684 47.9385 32.625 47.9385C33.1816 47.9385 33.6016 48.0947 33.8848 48.4072C34.1777 48.7197 34.3242 49.1104 34.3242 49.5791C34.3242 50.0283 34.1777 50.4043 33.8848 50.707C33.6016 51.0098 33.1816 51.1611 32.625 51.1611C32.0684 51.1611 31.6484 51.0098 31.3652 50.707C31.0918 50.4043 30.9551 50.0283 30.9551 49.5791Z" fill="white"/>
<path d="M51.9023 41.9033C51.9023 45.0771 51.3604 47.4355 50.2764 48.9785C49.1924 50.5215 47.498 51.293 45.1934 51.293C42.918 51.293 41.2334 50.541 40.1396 49.0371C39.0459 47.5234 38.4795 45.2676 38.4404 42.2695V38.6514C38.4404 35.5166 38.9824 33.1875 40.0664 31.6641C41.1504 30.1406 42.8496 29.3789 45.1641 29.3789C47.459 29.3789 49.1484 30.1162 50.2324 31.5908C51.3164 33.0557 51.873 35.3213 51.9023 38.3877V41.9033ZM49.1924 38.1973C49.1924 35.9023 48.8701 34.2324 48.2256 33.1875C47.5811 32.1328 46.5605 31.6055 45.1641 31.6055C43.7773 31.6055 42.7666 32.1279 42.1318 33.1729C41.4971 34.2178 41.1699 35.8242 41.1504 37.9922V42.3281C41.1504 44.6328 41.4824 46.3369 42.1465 47.4404C42.8203 48.5342 43.8359 49.0811 45.1934 49.0811C46.5312 49.0811 47.5225 48.5635 48.167 47.5283C48.8213 46.4932 49.1631 44.8623 49.1924 42.6357V38.1973Z" fill="white"/>
<path d="M64.2803 51H61.5557V32.9385L56.0918 34.9453V32.4844L63.8555 29.5693H64.2803V51Z" fill="white"/>
</svg>
