<svg width="81" height="81" viewBox="0 0 81 81" fill="none" xmlns="http://www.w3.org/2000/svg">
<circle cx="40.5" cy="40.5" r="40.5" fill="#8ED1FD"/>
<path d="M19.2487 35.5625H30.1237V59.125H19.2487C18.768 59.125 18.3069 58.934 17.967 58.5941C17.6271 58.2542 17.4362 57.7932 17.4362 57.3125V37.375C17.4362 36.8943 17.6271 36.4333 17.967 36.0934C18.3069 35.7535 18.768 35.5625 19.2487 35.5625V35.5625Z" stroke="white" stroke-width="2" stroke-linecap="round" stroke-linejoin="round"/>
<path d="M30.1237 35.5625L39.1862 17.4375C40.1382 17.4375 41.081 17.625 41.9606 17.9894C42.8402 18.3537 43.6395 18.8878 44.3127 19.561C44.9859 20.2342 45.5199 21.0334 45.8843 21.913C46.2486 22.7927 46.4362 23.7354 46.4362 24.6875V30.125H60.4548C60.9688 30.125 61.4769 30.2343 61.9455 30.4457C62.414 30.657 62.8322 30.9656 63.1724 31.351C63.5126 31.7363 63.7669 32.1896 63.9185 32.6807C64.0701 33.1718 64.1156 33.6896 64.0518 34.1996L61.3331 55.9496C61.2235 56.8263 60.7975 57.6329 60.1351 58.2176C59.4727 58.8023 58.6196 59.125 57.7361 59.125H30.1237" stroke="white" stroke-width="2" stroke-linecap="round" stroke-linejoin="round"/>
</svg>
