<svg width="81" height="81" viewBox="0 0 81 81" fill="none" xmlns="http://www.w3.org/2000/svg">
<circle cx="40.5" cy="40.5" r="40.5" fill="#8ED1FD"/>
<path d="M19.2485 35.5625H30.1235V59.125H19.2485C18.7678 59.125 18.3068 58.934 17.9669 58.5941C17.627 58.2542 17.436 57.7932 17.436 57.3125V37.375C17.436 36.8943 17.627 36.4333 17.9669 36.0934C18.3068 35.7535 18.7678 35.5625 19.2485 35.5625V35.5625Z" stroke="white" stroke-width="2" stroke-linecap="round" stroke-linejoin="round"/>
<path d="M30.1235 35.5625L39.186 17.4375C40.1381 17.4375 41.0809 17.625 41.9605 17.9894C42.8401 18.3537 43.6393 18.8878 44.3126 19.561C44.9858 20.2342 45.5198 21.0334 45.8842 21.913C46.2485 22.7927 46.436 23.7354 46.436 24.6875V30.125H60.4547C60.9687 30.125 61.4768 30.2343 61.9454 30.4457C62.4139 30.657 62.8321 30.9656 63.1723 31.351C63.5124 31.7363 63.7668 32.1896 63.9184 32.6807C64.07 33.1718 64.1155 33.6896 64.0517 34.1996L61.333 55.9496C61.2234 56.8263 60.7974 57.6329 60.135 58.2176C59.4726 58.8023 58.6195 59.125 57.736 59.125H30.1235" stroke="white" stroke-width="2" stroke-linecap="round" stroke-linejoin="round"/>
</svg>
