<svg width="81" height="81" viewBox="0 0 81 81" fill="none" xmlns="http://www.w3.org/2000/svg">
<circle cx="40.5" cy="40.5" r="40.5" fill="#FF5B5B"/>
<path d="M40 62.75C52.0122 62.75 61.75 53.0122 61.75 41C61.75 28.9878 52.0122 19.25 40 19.25C27.9878 19.25 18.25 28.9878 18.25 41C18.25 53.0122 27.9878 62.75 40 62.75Z" stroke="white" stroke-width="2" stroke-miterlimit="10"/>
<path d="M59.5217 50.5999L47.2224 43.0354C47.0068 42.9028 46.7659 42.8168 46.515 42.783L41.3452 42.0861C40.9569 42.0337 40.5622 42.1086 40.2201 42.2994C39.878 42.4902 39.6069 42.7867 39.4475 43.1445L36.3439 50.1087C36.1995 50.4325 36.1533 50.7916 36.2111 51.1415C36.2688 51.4913 36.4278 51.8165 36.6685 52.0769L40.9279 56.684C41.121 56.8928 41.2622 57.1442 41.3401 57.4178C41.4181 57.6913 41.4305 57.9794 41.3765 58.2586L40.5089 62.7437" stroke="white" stroke-width="2" stroke-linecap="round" stroke-linejoin="round"/>
<path d="M25.7157 24.5983L23.6893 29.39C23.5086 29.8173 23.4986 30.2975 23.6614 30.7319L26.2648 37.6802C26.3714 37.9647 26.5478 38.2179 26.7778 38.4164C27.0079 38.6149 27.2841 38.7524 27.5812 38.8163L32.4364 39.8598C32.7058 39.9177 32.9585 40.0363 33.1752 40.2065C33.3919 40.3767 33.5669 40.5941 33.687 40.8421L34.5492 42.6234C34.6976 42.9299 34.9293 43.1884 35.2178 43.3693C35.5064 43.5502 35.84 43.6462 36.1806 43.6462H39.2239" stroke="white" stroke-width="2" stroke-linecap="round" stroke-linejoin="round"/>
<path d="M45.5413 19.9634L47.656 23.7511C47.8559 24.1092 47.9284 24.5245 47.8618 24.9291C47.7952 25.3338 47.5933 25.7039 47.2891 25.979L41.1921 31.4929C41.0887 31.5865 40.9747 31.6678 40.8526 31.7353L38.0791 33.2669C37.8108 33.4151 37.5093 33.4928 37.2029 33.4928H32.3668C32.0102 33.4928 31.6615 33.598 31.3643 33.7952C31.0672 33.9925 30.8349 34.273 30.6964 34.6017L28.8098 39.0804" stroke="white" stroke-width="2" stroke-linecap="round" stroke-linejoin="round"/>
</svg>
