<svg width="81" height="81" viewBox="0 0 81 81" fill="none" xmlns="http://www.w3.org/2000/svg">
<circle cx="40.5" cy="40.5" r="40.5" fill="#6E74C8"/>
<path d="M22.2925 52.1015C19.5902 47.5461 18.6438 42.1609 19.6311 36.9571C20.6183 31.7533 23.4713 27.0889 27.6543 23.8397C31.8373 20.5906 37.0625 18.9802 42.3488 19.311C47.6351 19.6418 52.6187 21.891 56.364 25.6363C60.1093 29.3816 62.3586 34.3653 62.6894 39.6515C63.0202 44.9378 61.4099 50.163 58.1607 54.346C54.9116 58.529 50.2472 61.382 45.0435 62.3693C39.8397 63.3566 34.4544 62.4103 29.899 59.708L29.8991 59.7078L22.387 61.8541C22.0762 61.9429 21.7473 61.9469 21.4344 61.8659C21.1215 61.7848 20.836 61.6215 20.6074 61.3929C20.3789 61.1644 20.2156 60.8789 20.1345 60.566C20.0534 60.2531 20.0575 59.9242 20.1463 59.6134L22.2926 52.1013L22.2925 52.1015Z" stroke="white" stroke-width="2" stroke-linecap="round" stroke-linejoin="round"/>
<path d="M30.125 43.7275C31.6265 43.7275 32.8438 42.5103 32.8438 41.0088C32.8438 39.5073 31.6265 38.29 30.125 38.29C28.6235 38.29 27.4062 39.5073 27.4062 41.0088C27.4062 42.5103 28.6235 43.7275 30.125 43.7275Z" fill="white"/>
<path d="M41 43.7275C42.5015 43.7275 43.7188 42.5103 43.7188 41.0088C43.7188 39.5073 42.5015 38.29 41 38.29C39.4985 38.29 38.2812 39.5073 38.2812 41.0088C38.2812 42.5103 39.4985 43.7275 41 43.7275Z" fill="white"/>
<path d="M51.875 43.7275C53.3765 43.7275 54.5938 42.5103 54.5938 41.0088C54.5938 39.5073 53.3765 38.29 51.875 38.29C50.3735 38.29 49.1562 39.5073 49.1562 41.0088C49.1562 42.5103 50.3735 43.7275 51.875 43.7275Z" fill="white"/>
</svg>
