<?xml version="1.0" standalone="no"?>
<!DOCTYPE svg PUBLIC "-//W3C//DTD SVG 20010904//EN"
 "http://www.w3.org/TR/2001/REC-SVG-20010904/DTD/svg10.dtd">
<svg version="1.0" xmlns="http://www.w3.org/2000/svg"
 width="700.000000pt" height="700.000000pt" viewBox="0 0 700.000000 700.000000"
 preserveAspectRatio="xMidYMid meet">
<metadata>
Created by potrace 1.14, written by Peter Selinger 2001-2017
</metadata>
<g transform="translate(0.000000,700.000000) scale(0.100000,-0.100000)"
fill="#000000" stroke="none">
<path d="M3389 6584 c-161 -37 -261 -123 -366 -314 -17 -30 -80 -140 -140
-245 -61 -104 -186 -320 -278 -480 -92 -159 -177 -306 -188 -325 -10 -19 -47
-82 -80 -140 -68 -117 -75 -156 -39 -193 l23 -22 1180 0 1181 0 23 29 c32 40
26 74 -26 156 -17 26 -457 790 -505 876 -15 27 -53 92 -84 144 -31 52 -80 138
-110 190 -94 166 -155 231 -265 284 -106 51 -220 65 -326 40z"/>
<path d="M1950 4363 c-14 -2 -32 -14 -40 -26 -23 -36 -210 -358 -210 -362 0
-2 -17 -32 -38 -66 -22 -35 -91 -154 -154 -264 -63 -110 -174 -302 -246 -427
-85 -146 -132 -237 -132 -255 0 -15 9 -39 20 -53 l19 -25 2323 -3 2324 -2 22
20 c37 35 38 67 7 129 -16 31 -34 63 -40 71 -7 8 -26 40 -42 70 -17 30 -55 98
-85 150 -30 52 -98 169 -150 260 -53 91 -153 264 -223 385 -70 121 -137 239
-150 262 -45 80 -75 122 -93 132 -17 9 -3047 12 -3112 4z"/>
<path d="M814 2380 c-10 -3 -26 -9 -35 -15 -12 -8 -271 -446 -373 -630 -9 -16
-26 -46 -37 -65 -26 -43 -279 -481 -307 -531 -52 -93 -72 -227 -51 -336 6 -29
10 -55 9 -58 0 -3 13 -32 31 -65 73 -138 181 -224 334 -268 35 -10 6166 -9
6215 1 85 17 191 76 255 141 117 120 165 276 135 437 -9 46 -91 234 -110 249
-5 4 -49 81 -128 220 -11 19 -77 134 -147 255 -70 121 -179 310 -242 420 -64
110 -126 211 -139 225 l-24 25 -2684 0 c-1476 0 -2692 -2 -2702 -5z"/>
</g>
</svg>
